<?xml version="1.0" encoding="utf-8"?>
<!-- Generator: Adobe Illustrator 18.1.1, SVG Export Plug-In . SVG Version: 6.00 Build 0)  -->
<svg version="1.1" id="Layer_1" xmlns="http://www.w3.org/2000/svg" xmlns:xlink="http://www.w3.org/1999/xlink" x="0px" y="0px"
	 viewBox="0 0 135 40" enable-background="new 0 0 135 40" xml:space="preserve">
<path fill="#020202" stroke="#FFFFFF" stroke-width="0.8763" stroke-miterlimit="10" d="M134.6,34.4c0,3.5-3,5.8-7.1,5.8H7
	c-4.1,0-7.4-2.9-7.4-6.4V6.6C-0.4,3,2.9,0.1,7,0.1h120.5c4.1,0,7.1,2.9,7.1,6.4V34.4z"/>
<path fill="#020202" stroke="#FFFFFF" stroke-width="0.8763" stroke-miterlimit="10" d="M134.6,34.4c0,3.5-3,5.8-7.1,5.8H7
	c-4.1,0-7.4-2.9-7.4-6.4V6.6C-0.4,3,2.9,0.1,7,0.1h120.5c4.1,0,7.1,2.9,7.1,6.4V34.4z"/>
<g>
	<g>
		<g>
			<path fill="#FFFFFF" d="M90.9,29.6L90,30.5c-0.2,0.1-0.4,0.3-0.6,0.4c-0.6,0.3-1.3,0.4-1.9,0.4c-0.6,0-1.6,0-2.6-0.8
				c-1.4-1-2-2.7-2-4.1c0-3,2.5-4.5,4.5-4.5c0.7,0,1.4,0.2,2,0.5c1,0.6,1.2,1.5,1.4,1.9l-4.6,1.9l-1.5,0.1c0.5,2.5,2.2,3.9,4,3.9
				C89.6,30.2,90.3,29.9,90.9,29.6C90.9,29.6,91,29.5,90.9,29.6z M88.2,24.7c0.4-0.1,0.6-0.3,0.6-0.5c0-0.8-0.9-1.7-1.9-1.7
				c-0.8,0-2.2,0.6-2.2,2.7c0,0.3,0,0.7,0.1,1L88.2,24.7z"/>
			<path fill="#FFFFFF" d="M81.3,29.5c0,0.8,0.1,0.9,0.8,0.9c0.3,0,0.7,0.1,1,0.1l-0.7,0.4h-3.4c0.5-0.6,0.5-0.6,0.5-1v-0.4l0-11.6
				h-1.5l1.5-0.7h2.8c-0.6,0.4-0.8,0.6-0.9,1.2L81.3,29.5z"/>
			<path fill="#FFFFFF" d="M76,22.8c0.4,0.4,1.4,1.2,1.4,2.6c0,1.4-0.8,2.1-1.6,2.8c-0.3,0.3-0.5,0.5-0.5,1c0,0.4,0.3,0.7,0.5,0.8
				l0.7,0.5c0.9,0.7,1.6,1.4,1.6,2.7c0,1.8-1.8,3.7-5.1,3.7c-2.8,0-4.2-1.3-4.2-2.8c0-0.7,0.3-1.7,1.5-2.4c1.2-0.7,2.8-0.8,3.7-0.9
				c-0.3-0.4-0.6-0.7-0.6-1.3c0-0.3,0.1-0.5,0.2-0.8c-0.2,0-0.4,0-0.6,0c-2.1,0-3.2-1.5-3.2-3.1c0-0.9,0.4-1.9,1.3-2.6
				c1.1-0.9,2.4-1.1,3.5-1.1h4l-1.2,0.7L76,22.8L76,22.8z M74.6,31.5c-0.2,0-0.3,0-0.4,0c-0.2,0-1.2,0-2,0.3c-0.4,0.2-1.7,0.6-1.7,2
				c0,1.4,1.3,2.4,3.4,2.4c1.9,0,2.9-0.9,2.9-2.1C76.7,33,76.1,32.5,74.6,31.5z M75.2,27.7c0.5-0.5,0.5-1.1,0.5-1.4
				c0-1.4-0.8-3.6-2.5-3.6c-0.5,0-1.1,0.3-1.4,0.6c-0.3,0.4-0.4,0.9-0.4,1.4c0,1.3,0.8,3.5,2.4,3.5C74.3,28.3,74.9,28.1,75.2,27.7z"
				/>
			<path fill="#FFFFFF" d="M63.9,31.2c-3.1,0-4.8-2.4-4.8-4.6c0-2.6,2.1-4.7,5.1-4.7c2.9,0,4.7,2.2,4.7,4.6
				C68.8,28.7,67.1,31.2,63.9,31.2z M66.3,29.6c0.5-0.6,0.6-1.4,0.6-2.2c0-1.7-0.8-5-3.2-5c-0.6,0-1.3,0.3-1.8,0.7
				c-0.8,0.7-0.9,1.5-0.9,2.4c0,1.9,1,5.1,3.3,5.1C65.1,30.6,65.9,30.2,66.3,29.6z"/>
			<path fill="#FFFFFF" d="M53.5,31.2c-3.1,0-4.8-2.4-4.8-4.6c0-2.6,2.1-4.7,5.1-4.7c2.9,0,4.7,2.2,4.7,4.6
				C58.5,28.7,56.7,31.2,53.5,31.2z M55.9,29.6c0.5-0.6,0.6-1.4,0.6-2.2c0-1.7-0.8-5-3.2-5c-0.6,0-1.3,0.3-1.8,0.7
				c-0.8,0.7-0.9,1.5-0.9,2.4c0,1.9,1,5.1,3.3,5.1C54.7,30.6,55.5,30.2,55.9,29.6z"/>
			<path fill="#FFFFFF" d="M47.5,30.5l-2.6,0.6c-1.1,0.2-2,0.3-3,0.3c-5,0-7-3.7-7-6.6c0-3.6,2.7-6.8,7.4-6.8c1,0,1.9,0.1,2.8,0.4
				c1.4,0.4,2,0.9,2.4,1.1L46,20.9l-0.6,0.1l0.5-0.7c-0.6-0.6-1.8-1.7-3.9-1.7c-2.9,0-5.1,2.2-5.1,5.4c0,3.4,2.5,6.7,6.5,6.7
				c1.2,0,1.8-0.2,2.3-0.5v-3l-2.8,0.1l1.5-0.8h3.9l-0.5,0.5c-0.1,0.1-0.1,0.1-0.2,0.3c0,0.2,0,0.7,0,0.9L47.5,30.5L47.5,30.5
				L47.5,30.5z"/>
		</g>
		<g>
			<path fill="#FFFFFF" d="M96.5,29.7v5h-1V22h1v1.4c0.6-0.9,1.8-1.7,3.2-1.7c2.4,0,4.1,1.9,4.1,4.8c0,2.9-1.6,4.8-4.1,4.8
				C98.4,31.4,97.3,30.7,96.5,29.7z M102.8,26.6c0-2.2-1.2-3.9-3.2-3.9c-1.3,0-2.5,1-3,1.9v4c0.5,0.9,1.7,1.9,3,1.9
				C101.6,30.5,102.8,28.8,102.8,26.6z"/>
			<path fill="#FFFFFF" d="M105.2,31.2V18.5h1v12.7H105.2z"/>
			<path fill="#FFFFFF" d="M117.2,33.9c0.2,0.1,0.6,0.2,0.8,0.2c0.6,0,1-0.2,1.4-1.1l0.7-1.6l-3.9-9.2h1.1l3.3,8l3.3-8h1.1
				l-4.7,11.2c-0.5,1.2-1.3,1.7-2.3,1.7c-0.3,0-0.7-0.1-1-0.1L117.2,33.9z"/>
			<path fill="#FFFFFF" d="M114.4,31.1c-0.1-0.3-0.1-0.6-0.2-0.8c0-0.2,0-0.5,0-0.7c-0.3,0.5-0.8,0.9-1.4,1.2
				c-0.6,0.3-1.2,0.5-2,0.5c-1,0-1.7-0.2-2.2-0.7c-0.5-0.5-0.8-1.1-0.8-2c0-0.8,0.4-1.5,1.2-2c0.8-0.5,1.8-0.8,3-0.8h2.3v-1.1
				c0-0.7-0.2-1.2-0.7-1.5c-0.4-0.4-1.1-0.6-1.9-0.6c-0.7,0-1.3,0.2-1.8,0.5c-0.5,0.3-0.7,0.8-0.7,1.3h-1l0,0c0-0.7,0.3-1.3,1-1.8
				c0.7-0.5,1.5-0.8,2.6-0.8c1.1,0,1.9,0.3,2.6,0.8c0.7,0.5,1,1.3,1,2.2v4.5c0,0.3,0,0.6,0.1,0.9c0,0.3,0.1,0.6,0.2,0.9L114.4,31.1
				L114.4,31.1z M110.9,30.4c0.8,0,1.4-0.2,2.1-0.6c0.6-0.4,1-0.8,1.2-1.4v-1.8h-2.3c-0.9,0-1.6,0.2-2.2,0.6
				c-0.6,0.4-0.9,0.9-0.9,1.4c0,0.5,0.2,0.9,0.6,1.3C109.7,30.3,110.2,30.4,110.9,30.4z"/>
		</g>
	</g>
	<g>
		<g>
			<path fill="#FFFFFF" d="M34.9,8.1c0-1.9,1.4-3.2,3.2-3.2c1.2,0,2,0.6,2.5,1.3l-0.9,0.5c-0.3-0.5-0.9-0.8-1.6-0.8
				C37,5.9,36,6.8,36,8.1c0,1.3,0.9,2.2,2.1,2.2c0.6,0,1.2-0.3,1.5-0.6v-1h-1.9v-1h2.9v2.3c-0.6,0.7-1.5,1.1-2.5,1.1
				C36.4,11.4,34.9,10.1,34.9,8.1z"/>
			<path fill="#FFFFFF" d="M42.1,11.2V5.1h4.2v1h-3.1v1.6h3.1v1h-3.1v1.7h3.1v1L42.1,11.2L42.1,11.2z"/>
			<path fill="#FFFFFF" d="M49.3,11.2V6h-1.9v-1h4.8v1h-1.9v5.2H49.3z"/>
			<path fill="#FFFFFF" d="M56,11.2V5.1h1.1v6.2H56z"/>
			<path fill="#FFFFFF" d="M60.1,11.2V6h-1.9v-1h4.8v1h-1.9v5.2H60.1z"/>
			<path fill="#FFFFFF" d="M66.5,8.1c0-1.8,1.3-3.2,3.2-3.2c1.8,0,3.2,1.4,3.2,3.2s-1.3,3.2-3.2,3.2C67.9,11.3,66.5,10,66.5,8.1z
				 M71.8,8.1c0-1.3-0.8-2.2-2-2.2c-1.2,0-2,1-2,2.2c0,1.3,0.8,2.2,2,2.2C70.9,10.4,71.8,9.4,71.8,8.1z"/>
			<path fill="#FFFFFF" d="M78.4,11.2l-3.2-4.4v4.4h-1.1V5.1h1.1l3.2,4.3V5.1h1.1v6.2H78.4z"/>
		</g>
	</g>
	<g>
		<polygon fill="none" points="22,26.1 25.2,22.9 25.2,22.9 22,26.1 11.9,16 11.9,16 22,26.1 11.9,36.2 11.9,36.2 22,26.1 
			25.2,29.3 25.2,29.3 		"/>
		
			<linearGradient id="SVGID_1_" gradientUnits="userSpaceOnUse" x1="330.4037" y1="-889.5172" x2="317.0568" y2="-897.8703" gradientTransform="matrix(0.7071 0.7071 -0.7071 0.7071 -842.7349 420.6093)">
			<stop  offset="0" style="stop-color:#D7E69E"/>
			<stop  offset="0.4456" style="stop-color:#95C4AA"/>
			<stop  offset="1" style="stop-color:#02A5B7"/>
		</linearGradient>
		<path fill="url(#SVGID_1_)" d="M25.2,22.9l-12.3-6.8c-0.3-0.2-0.7-0.2-0.9-0.2L22,26.1L25.2,22.9z"/>
		
			<linearGradient id="SVGID_2_" gradientUnits="userSpaceOnUse" x1="322.6449" y1="-896.6526" x2="339.9489" y2="-892.1292" gradientTransform="matrix(0.7071 0.7071 -0.7071 0.7071 -842.7349 420.6093)">
			<stop  offset="0" style="stop-color:#EE2B7B"/>
			<stop  offset="1.920000e-02" style="stop-color:#EE337D"/>
			<stop  offset="0.7039" style="stop-color:#F6BD80"/>
			<stop  offset="1" style="stop-color:#FDEA75"/>
		</linearGradient>
		<path fill="url(#SVGID_2_)" d="M25.2,29.3l4.2-2.3c0.9-0.5,0.9-1.2,0-1.7l-4.2-2.3L22,26.1L25.2,29.3z"/>
		
			<linearGradient id="SVGID_3_" gradientUnits="userSpaceOnUse" x1="332.3038" y1="-883.1815" x2="313.5386" y2="-894.2219" gradientTransform="matrix(0.7071 0.7071 -0.7071 0.7071 -842.7349 420.6093)">
			<stop  offset="0" style="stop-color:#89CFBD"/>
			<stop  offset="9.070000e-02" style="stop-color:#7EBEBC"/>
			<stop  offset="0.5396" style="stop-color:#467DAD"/>
			<stop  offset="0.8523" style="stop-color:#1E5BA2"/>
			<stop  offset="1" style="stop-color:#0B4F9D"/>
		</linearGradient>
		<path fill="url(#SVGID_3_)" d="M11.9,16c-0.4,0.1-0.6,0.5-0.6,1.1l0,18.1c0,0.6,0.2,0.9,0.6,1.1L22,26.1L11.9,16z"/>
		
			<linearGradient id="SVGID_4_" gradientUnits="userSpaceOnUse" x1="339.1176" y1="-891.9487" x2="327.5622" y2="-876.725" gradientTransform="matrix(0.7071 0.7071 -0.7071 0.7071 -842.7349 420.6093)">
			<stop  offset="0" style="stop-color:#F04C2A"/>
			<stop  offset="0.4704" style="stop-color:#B6506C"/>
			<stop  offset="0.8353" style="stop-color:#8C5292"/>
			<stop  offset="1" style="stop-color:#7952A1"/>
		</linearGradient>
		<path fill="url(#SVGID_4_)" d="M11.9,36.2c0.3,0.1,0.6,0,1-0.1l12.4-6.8L22,26.1L11.9,36.2z"/>
	</g>
</g>
</svg>
